<?xml version="1.0" standalone="no"?>
<!DOCTYPE svg PUBLIC "-//W3C//DTD SVG 20010904//EN"
 "http://www.w3.org/TR/2001/REC-SVG-20010904/DTD/svg10.dtd">
<svg version="1.0" xmlns="http://www.w3.org/2000/svg"
 width="1024.000000pt" height="1024.000000pt" viewBox="0 0 1024.000000 1024.000000"
 preserveAspectRatio="xMidYMid meet">

<g transform="translate(0.000000,1024.000000) scale(0.100000,-0.100000)"
fill="#000000" stroke="none">
<path d="M5113 8176 c-35 -13 -88 -42 -118 -65 -55 -41 -115 -113 -115 -136 0
-8 -33 -11 -112 -11 -101 0 -119 -3 -171 -26 -74 -35 -156 -113 -192 -185 -24
-47 -30 -72 -33 -147 -5 -111 14 -168 87 -267 62 -84 122 -126 210 -147 l69
-16 6 -175 c4 -97 9 -194 12 -216 l4 -40 513 0 512 0 0 218 0 217 36 0 c56 0
170 62 223 121 149 166 153 403 8 548 -90 90 -208 131 -319 111 -36 -6 -66
-10 -67 -8 -2 2 -14 24 -29 49 -36 63 -107 125 -185 162 -60 28 -78 32 -172
34 -90 3 -114 0 -167 -21z m244 -149 c95 -35 171 -128 194 -234 14 -71 33 -75
122 -28 78 40 122 44 182 16 91 -41 142 -130 132 -228 -8 -81 -43 -142 -102
-178 -44 -27 -56 -30 -144 -31 l-95 -2 -9 -28 c-4 -16 -7 -116 -5 -221 2 -106
0 -193 -4 -193 -5 0 -168 0 -363 0 l-355 0 0 183 c0 100 -5 199 -11 220 l-10
37 -82 0 c-103 0 -146 19 -209 88 -52 59 -74 126 -64 195 23 149 187 231 305
152 100 -68 120 -70 134 -15 25 105 40 141 77 183 58 65 127 97 209 96 37 0
80 -6 98 -12z"/>
<path d="M5049 7418 c-8 -15 -10 -68 -7 -170 4 -129 8 -153 25 -176 24 -32 65
-40 99 -17 24 15 24 17 24 174 l0 159 -31 26 c-39 34 -93 36 -110 4z"/>
<path d="M5374 7415 c-26 -39 -27 -319 -1 -358 21 -33 63 -36 98 -8 23 19 24
22 22 182 l-1 163 -26 23 c-36 31 -71 30 -92 -2z"/>
<path d="M3975 6957 c-122 -32 -247 -129 -261 -204 -4 -19 -4 -59 -1 -89 15
-148 192 -327 398 -401 64 -23 90 -27 194 -27 136 -1 196 16 278 79 25 19 56
35 69 35 33 0 359 -113 361 -125 3 -18 -223 -96 -378 -131 -215 -49 -454 -114
-498 -136 -45 -22 -92 -85 -101 -134 -9 -45 25 -119 63 -138 86 -44 152 -29
394 91 363 181 746 352 788 353 19 1 146 -60 479 -229 444 -226 438 -223 507
-229 121 -10 193 42 193 138 0 54 -32 108 -82 138 -38 23 -210 77 -383 121
-189 48 -478 151 -463 166 8 8 331 122 364 128 27 5 41 -1 98 -47 70 -56 118
-76 180 -76 55 0 174 33 311 85 66 26 161 61 210 80 50 18 102 39 118 46 34
15 45 54 26 87 -30 52 -34 52 -261 -27 -117 -40 -235 -82 -263 -92 -27 -10
-76 -18 -107 -19 -54 0 -60 2 -98 40 -34 34 -40 46 -40 83 0 69 43 101 200
152 73 24 421 149 488 176 12 5 28 20 34 34 10 22 9 29 -10 47 -28 29 -63 26
-168 -15 -49 -19 -168 -58 -264 -86 -199 -60 -340 -123 -387 -172 -17 -19 -42
-61 -55 -94 -21 -52 -29 -61 -59 -69 -44 -12 -189 -62 -354 -121 -220 -78
-181 -77 -372 -12 -202 68 -426 147 -431 152 -2 2 -10 29 -19 61 -43 168 -153
280 -346 355 -69 26 -98 31 -192 35 -70 2 -128 -1 -160 -9z m278 -156 c143
-50 223 -118 252 -214 19 -64 19 -73 -4 -124 -30 -65 -82 -88 -196 -88 -79 1
-100 5 -165 33 -41 18 -96 48 -122 67 -60 44 -133 137 -152 192 -14 42 -14 44
11 73 70 83 234 110 376 61z m1952 -906 c65 -17 101 -44 92 -69 -4 -9 -17 -16
-29 -16 -27 0 -115 49 -142 79 -19 21 -19 21 0 21 11 0 47 -7 79 -15z m-1815
-15 c0 -24 -162 -89 -193 -77 -33 12 -20 47 26 67 45 21 167 28 167 10z"/>
<path d="M4167 6733 c-4 -3 -7 -16 -7 -28 0 -15 15 -29 63 -52 34 -18 78 -42
99 -54 62 -37 91 0 48 61 -37 52 -175 102 -203 73z"/>
<path d="M6728 6785 c-5 -5 -124 -49 -383 -140 -184 -64 -211 -83 -198 -136
19 -78 63 -71 478 84 172 64 172 64 195 87 28 28 25 64 -6 89 -25 19 -73 28
-86 16z"/>
<path d="M3400 6278 l0 -128 25 0 c21 0 26 6 31 40 4 22 10 43 15 45 4 3 22
-15 39 -40 27 -39 36 -45 65 -45 19 0 35 3 35 8 0 4 -23 36 -51 71 l-51 63 51
45 c54 47 57 63 12 63 -20 0 -39 -12 -65 -40 -46 -50 -58 -51 -50 -1 6 37 5
39 -25 43 l-31 5 0 -129z"/>
<path d="M2876 6378 c-35 -54 -98 -199 -92 -213 3 -8 16 -15 30 -15 17 0 26 7
30 25 6 22 12 25 52 25 37 0 47 -4 51 -20 4 -15 14 -20 39 -20 41 0 42 8 8 80
-14 30 -35 79 -46 108 -22 58 -47 68 -72 30z m44 -109 c0 -12 -6 -15 -25 -11
-29 5 -28 3 -13 37 11 25 13 26 25 9 7 -10 13 -25 13 -35z"/>
<path d="M3130 6275 l0 -125 75 0 75 0 0 30 c0 26 -3 30 -29 30 -58 0 -61 4
-61 101 l0 89 -30 0 -30 0 0 -125z"/>
<path d="M3130 5497 c-163 -49 -278 -144 -349 -288 -47 -96 -61 -158 -61 -273
0 -148 40 -258 136 -379 109 -137 308 -219 494 -203 142 12 218 43 353 144
l88 66 -101 101 c-91 90 -102 98 -112 81 -25 -45 -82 -95 -131 -117 -43 -20
-69 -24 -147 -24 -84 0 -102 3 -153 29 -143 69 -206 248 -152 426 16 54 29 75
80 127 70 70 127 93 229 93 114 -1 200 -50 243 -138 l27 -55 30 39 c16 22 60
70 97 108 41 41 65 74 62 82 -7 19 -115 109 -167 139 -114 66 -321 85 -466 42z"/>
<path d="M4512 5509 c-65 -11 -177 -58 -235 -98 -152 -106 -242 -276 -241
-456 1 -337 231 -582 564 -602 117 -7 186 7 281 54 69 34 209 153 209 176 0 6
18 40 40 76 48 80 70 176 70 305 0 157 -50 276 -160 386 -138 137 -324 193
-528 159z m252 -263 c175 -86 236 -314 132 -501 -120 -217 -455 -200 -565 28
-49 100 -51 249 -5 339 75 146 283 210 438 134z"/>
<path d="M5520 5500 c0 -12 13 -34 29 -49 l28 -26 8 -442 c4 -242 4 -459 0
-481 -4 -25 -17 -50 -36 -68 -16 -15 -29 -38 -29 -50 l0 -23 399 -3 400 -3 30
-29 31 -30 0 201 c0 181 -2 202 -17 208 -10 3 -19 2 -21 -4 -11 -34 -52 -78
-82 -88 -22 -7 -106 -12 -227 -12 l-193 -1 0 406 0 406 40 37 c22 20 40 42 40
49 0 9 -44 12 -177 12 -98 0 -188 3 -200 6 -19 5 -23 2 -23 -16z"/>
<path d="M6670 5493 c0 -12 9 -27 20 -33 49 -26 50 -38 50 -517 0 -426 -1
-450 -20 -480 -10 -17 -28 -37 -40 -43 -15 -8 -20 -19 -18 -36 2 -14 6 -24 11
-24 4 0 93 0 197 0 219 0 228 4 162 67 -39 38 -39 38 -46 136 l-7 99 63 66
c35 37 70 78 79 91 l15 24 30 -42 c16 -23 58 -81 93 -129 35 -48 83 -116 108
-152 l44 -65 -26 -22 c-14 -13 -25 -33 -25 -48 l0 -25 228 2 c226 3 227 3 230
25 3 17 -5 25 -31 37 -35 14 -93 81 -197 226 -30 41 -98 130 -152 198 -121
152 -124 157 -104 186 8 13 96 109 196 214 118 124 195 197 220 209 27 12 40
24 40 39 0 21 -3 21 -220 20 -217 -1 -220 -1 -220 -22 0 -12 10 -28 22 -36 21
-14 20 -16 -58 -104 -43 -49 -121 -134 -172 -189 -52 -55 -108 -121 -126 -146
l-31 -46 3 216 c3 236 7 250 66 279 16 8 26 20 24 29 -3 14 -31 16 -205 17
l-203 1 0 -22z"/>
<path d="M3883 4170 c-59 -12 -94 -33 -137 -80 -91 -101 -111 -217 -55 -328
54 -109 132 -156 255 -155 67 1 130 24 189 69 60 45 60 55 4 97 -45 33 -50 35
-59 18 -12 -24 -80 -51 -127 -51 -46 0 -93 31 -128 85 -22 33 -26 48 -22 88
11 120 152 167 265 87 l46 -33 16 23 c8 12 25 33 38 47 l23 25 -33 30 c-72 64
-184 95 -275 78z"/>
<path d="M6720 4150 c0 -20 -23 -51 -90 -121 l-90 -94 3 100 c2 55 6 107 10
115 6 13 -6 15 -74 17 l-81 3 6 -25 c8 -32 8 -503 1 -516 -4 -5 27 -9 72 -9
l78 0 -3 78 -3 77 36 22 35 22 40 -57 c23 -31 53 -76 68 -99 l27 -42 88 -1
c108 0 110 7 29 93 -75 79 -152 181 -152 201 0 21 135 171 176 197 51 31 44
49 -18 50 -29 0 -77 4 -105 8 -52 7 -53 7 -53 -19z"/>
<path d="M4701 4152 c-182 -77 -238 -310 -110 -456 52 -58 106 -87 180 -93
118 -11 238 58 293 169 65 131 3 298 -137 370 -59 30 -167 35 -226 10z m176
-142 c67 -41 89 -116 55 -193 -24 -54 -57 -78 -115 -84 -58 -7 -101 16 -138
75 -46 73 -36 151 27 201 36 28 126 29 171 1z"/>
<path d="M5665 4161 c-74 -18 -155 -85 -191 -159 -26 -51 -26 -182 -1 -233 26
-52 95 -119 146 -142 113 -50 265 -7 334 96 46 68 61 118 54 178 -21 175 -184
298 -342 260z m126 -144 c46 -31 79 -83 79 -125 0 -91 -84 -173 -162 -158 -97
18 -159 148 -113 237 35 67 131 90 196 46z"/>
<path d="M7208 3931 c-35 -11 -39 -73 -5 -95 33 -22 505 -9 520 15 15 24 0 68
-26 73 -29 7 -471 13 -489 7z"/>
<path d="M2765 3914 c-23 -23 -15 -66 15 -81 18 -9 94 -13 276 -13 230 0 252
1 267 18 21 23 22 56 1 76 -13 14 -53 16 -279 16 -230 0 -266 -2 -280 -16z"/>
<path d="M3534 3336 c-97 -42 -104 -185 -11 -233 48 -24 90 -21 133 12 l37 28
-22 18 c-21 17 -25 17 -51 4 -35 -18 -71 -6 -91 31 -27 52 38 112 87 79 18
-12 29 -13 44 -5 29 15 25 43 -9 63 -35 20 -75 21 -117 3z"/>
<path d="M3809 3323 c-35 -29 -59 -78 -59 -118 0 -15 15 -41 35 -64 67 -73
149 -63 201 24 33 58 27 104 -21 152 -44 44 -107 47 -156 6z m112 -51 c25 -21
30 -71 9 -96 -17 -21 -69 -20 -92 1 -22 20 -23 70 -1 95 21 23 55 23 84 0z"/>
<path d="M4153 3335 c-40 -17 -73 -69 -73 -114 0 -69 66 -131 139 -131 39 0
96 55 112 109 10 34 9 45 -8 77 -21 40 -73 74 -113 74 -14 -1 -40 -7 -57 -15z
m97 -65 c38 -38 14 -110 -37 -110 -31 0 -73 36 -73 62 0 25 44 68 70 68 11 0
29 -9 40 -20z"/>
<path d="M4413 3228 c4 -67 8 -122 10 -123 1 -1 14 -5 30 -9 26 -6 27 -5 27
32 0 21 3 42 7 46 4 3 28 -14 54 -40 29 -29 53 -45 65 -42 33 6 26 34 -21 79
-25 23 -45 48 -45 54 0 6 20 31 45 55 25 24 45 48 45 52 0 4 -11 10 -25 14
-21 5 -34 -2 -78 -46 l-52 -52 -3 51 c-3 50 -4 51 -34 51 l-31 0 6 -122z"/>
<path d="M4712 3223 l3 -128 28 -3 27 -3 0 124 c0 121 -1 125 -22 131 -13 3
-27 6 -31 6 -4 0 -6 -57 -5 -127z"/>
<path d="M5219 3334 c-64 -40 -86 -119 -50 -178 41 -66 120 -83 185 -41 21 14
26 25 26 61 0 48 -1 49 -53 58 -30 6 -39 4 -44 -10 -4 -10 0 -20 10 -26 25
-14 21 -38 -7 -38 -36 0 -76 37 -76 69 0 51 54 78 90 46 15 -14 20 -13 43 6
35 27 34 37 -8 55 -44 18 -83 18 -116 -2z"/>
<path d="M5590 3236 c0 -63 3 -121 6 -130 3 -9 17 -16 30 -16 21 0 24 4 24 40
0 52 19 52 69 1 29 -29 44 -38 60 -34 28 7 27 18 -4 45 -30 26 -31 33 -5 65
24 31 25 54 5 93 -16 32 -27 36 -122 45 l-63 6 0 -115z m134 32 c13 -22 5 -30
-36 -31 -29 -2 -33 1 -36 26 -3 26 -1 28 29 25 17 -2 37 -11 43 -20z"/>
<path d="M5875 3296 c-4 -28 -5 -82 -3 -121 l3 -70 85 -6 c47 -3 87 -4 89 -3
2 2 1 14 -3 27 -5 21 -14 26 -61 32 -45 5 -56 10 -53 23 2 11 18 19 47 24 24
4 46 10 48 12 13 12 -12 24 -62 31 -93 11 -61 55 41 55 24 0 45 5 46 10 0 6 1
15 2 21 1 7 -31 12 -86 13 l-87 3 -6 -51z"/>
<path d="M6194 3340 c-34 -13 -84 -81 -84 -113 0 -68 61 -137 121 -137 26 0
109 52 109 69 0 21 -68 29 -87 10 -35 -35 -114 49 -83 87 24 27 60 36 84 20
19 -12 26 -12 49 0 35 19 34 40 -3 59 -32 16 -73 19 -106 5z"/>
<path d="M6417 3344 c-8 -9 -10 -238 -1 -246 3 -3 17 -3 32 1 25 7 27 12 30
67 1 32 -1 86 -5 119 -7 50 -12 61 -28 63 -12 2 -24 0 -28 -4z"/>
<path d="M6567 3224 l2 -129 31 -3 c27 -3 30 -1 30 27 0 25 5 31 34 41 18 6
50 25 71 43 37 32 38 34 26 70 -16 47 -54 68 -136 74 l-60 5 2 -128z m121 54
c27 -27 2 -68 -42 -68 -18 0 -30 33 -21 60 7 22 44 27 63 8z"/>
<path d="M6820 3217 c0 -114 2 -128 16 -123 9 3 51 6 95 6 77 0 79 1 79 24 0
22 -5 25 -57 31 -75 8 -74 8 -64 23 4 7 25 15 47 18 57 8 64 12 58 28 -4 10
-23 16 -57 18 -45 3 -52 6 -55 26 -4 24 -4 23 73 26 46 1 50 3 53 28 l3 27
-95 -1 -96 -1 0 -130z"/>
<path d="M4870 3220 c0 -113 1 -120 20 -120 11 0 23 0 28 0 4 0 9 29 12 65 l5
65 48 -65 c66 -89 82 -87 91 12 3 42 6 96 6 120 0 42 -1 44 -26 41 -23 -3 -26
-8 -30 -52 -2 -27 -6 -51 -8 -53 -2 -3 -28 21 -57 51 -81 86 -89 81 -89 -64z"/>
<path d="M3666 2831 c-32 -22 -55 -56 -56 -84 0 -9 15 -34 33 -54 36 -39 81
-49 111 -23 26 21 18 31 -19 24 -70 -13 -112 49 -65 96 16 16 28 19 60 14 31
-5 40 -3 40 8 0 15 -39 38 -63 38 -7 0 -25 -9 -41 -19z"/>
<path d="M3867 2788 c3 -35 12 -75 20 -90 29 -59 94 -61 118 -5 18 45 24 149
8 154 -10 4 -13 -14 -13 -64 0 -71 -10 -93 -42 -93 -37 0 -58 36 -58 100 0 53
-2 60 -20 60 -18 0 -19 -5 -13 -62z"/>
<path d="M4158 2778 c4 -115 5 -118 56 -118 27 0 48 6 56 15 11 13 6 15 -39
15 l-51 0 0 80 c0 57 -4 80 -12 80 -10 0 -12 -20 -10 -72z"/>
<path d="M4350 2784 c0 -73 18 -157 31 -148 20 12 4 214 -17 214 -10 0 -14
-17 -14 -66z"/>
<path d="M4878 2844 c-5 -4 -8 -47 -8 -96 0 -68 3 -88 14 -88 8 0 17 15 20 35
9 44 19 44 45 1 22 -35 39 -46 69 -46 15 1 15 2 0 11 -34 20 -41 47 -18 78 23
34 26 73 6 90 -17 15 -118 26 -128 15z m88 -49 c9 -21 -13 -44 -35 -38 -19 5
-34 37 -23 47 11 12 53 5 58 -9z"/>
<path d="M5080 2845 c0 -3 16 -25 35 -51 28 -36 35 -55 35 -90 0 -32 4 -44 15
-44 11 0 15 12 15 44 0 36 6 50 40 88 21 25 36 48 33 52 -16 15 -40 3 -57 -29
-11 -19 -23 -35 -28 -35 -5 0 -18 16 -29 35 -12 20 -29 35 -40 35 -10 0 -19
-2 -19 -5z"/>
<path d="M5517 2842 c-74 -4 -73 -26 1 -30 41 -2 54 1 58 13 8 21 9 21 -59 17z"/>
<path d="M4514 2829 c-29 -8 -32 -13 -38 -61 -3 -29 -6 -64 -5 -78 l0 -25 16
23 c19 27 31 28 58 2 l22 -21 7 53 c12 86 12 90 -9 103 -14 9 -30 10 -51 4z
m46 -54 c0 -33 -2 -35 -35 -35 -33 0 -35 2 -34 33 0 25 2 28 8 13 7 -18 8 -18
14 -2 4 9 11 14 17 11 5 -3 10 -1 10 4 0 6 5 11 10 11 6 0 10 -16 10 -35z"/>
<path d="M5912 2828 c-8 -10 1 -13 41 -15 47 -1 50 0 32 13 -23 17 -59 18 -73
2z"/>
<path d="M4690 2799 c0 -15 -12 -47 -26 -73 -15 -26 -23 -54 -20 -63 6 -14 11
-12 34 10 35 33 42 33 72 2 35 -37 35 -24 1 33 -17 27 -31 56 -31 64 0 8 -7
23 -15 34 -14 18 -14 18 -15 -7z"/>
<path d="M5470 2754 c36 -8 100 -9 100 -2 0 5 -26 7 -57 7 -32 -1 -51 -3 -43
-5z"/>
<path d="M5475 2679 c-9 -14 -7 -15 48 -23 43 -7 47 -6 47 13 0 18 -6 21 -44
21 -25 0 -48 -5 -51 -11z"/>
<path d="M5720 2676 c0 -2 7 -6 15 -10 8 -3 15 -1 15 4 0 6 -7 10 -15 10 -8 0
-15 -2 -15 -4z"/>
</g>
</svg>
